<mxfile host="65bd71144e" scale="2" border="0">
    <diagram id="Jg0oJM9n3EhVS2JtkSUk" name="Page-1">
        <mxGraphModel dx="859" dy="660" grid="1" gridSize="10" guides="1" tooltips="1" connect="1" arrows="1" fold="1" page="1" pageScale="1" pageWidth="850" pageHeight="1100" background="#ffffff" math="0" shadow="0">
            <root>
                <mxCell id="0"/>
                <mxCell id="1" parent="0"/>
                <mxCell id="97" style="edgeStyle=none;html=1;exitX=0.5;exitY=0;exitDx=0;exitDy=0;entryX=0.5;entryY=1;entryDx=0;entryDy=0;fontSize=11;fontColor=#000000;" parent="1" source="21" target="20" edge="1">
                    <mxGeometry relative="1" as="geometry"/>
                </mxCell>
                <mxCell id="98" value="Data points about&amp;nbsp;&lt;br&gt;system internals" style="edgeLabel;html=1;align=center;verticalAlign=middle;resizable=0;points=[];fontSize=11;fontColor=#000000;" parent="97" vertex="1" connectable="0">
                    <mxGeometry x="-0.2124" relative="1" as="geometry">
                        <mxPoint y="-8" as="offset"/>
                    </mxGeometry>
                </mxCell>
                <mxCell id="21" value="telegraph" style="rounded=1;whiteSpace=wrap;html=1;glass=0;shadow=1;fillColor=#dae8fc;strokeColor=#6c8ebf;" parent="1" vertex="1">
                    <mxGeometry x="510" y="690" width="120" height="60" as="geometry"/>
                </mxCell>
                <mxCell id="27" value="landing-page" style="rounded=1;whiteSpace=wrap;html=1;shadow=1;glass=0;fillColor=#dae8fc;strokeColor=#6c8ebf;" parent="1" vertex="1">
                    <mxGeometry x="510" y="910" width="120" height="60" as="geometry"/>
                </mxCell>
                <mxCell id="28" value="dns-server" style="rounded=1;whiteSpace=wrap;html=1;glass=0;shadow=1;fillColor=#dae8fc;strokeColor=#6c8ebf;" parent="1" vertex="1">
                    <mxGeometry x="510" y="820" width="120" height="60" as="geometry"/>
                </mxCell>
                <mxCell id="91" style="edgeStyle=none;html=1;exitX=1;exitY=0.5;exitDx=0;exitDy=0;entryX=0;entryY=0.5;entryDx=0;entryDy=0;fontSize=11;fontColor=#000000;" parent="1" source="29" target="20" edge="1">
                    <mxGeometry relative="1" as="geometry"/>
                </mxCell>
                <mxCell id="93" value="Data points&lt;br&gt;from external&lt;br&gt;sources" style="edgeLabel;html=1;align=center;verticalAlign=middle;resizable=0;points=[];fontSize=11;fontColor=#000000;" parent="91" vertex="1" connectable="0">
                    <mxGeometry x="0.3486" relative="1" as="geometry">
                        <mxPoint x="-18" as="offset"/>
                    </mxGeometry>
                </mxCell>
                <mxCell id="29" value="external-collector&lt;br&gt;&lt;font style=&quot;font-size: 11px;&quot;&gt;(ingests external data point messages)&lt;/font&gt;" style="rounded=1;whiteSpace=wrap;html=1;glass=0;shadow=1;fillColor=#dae8fc;strokeColor=#6c8ebf;" parent="1" vertex="1">
                    <mxGeometry x="300" y="550" width="120" height="60" as="geometry"/>
                </mxCell>
                <mxCell id="39" value="Legend" style="align=left;fontSize=16;fontStyle=1;strokeColor=none;fillColor=none;fontColor=#4D4D4D;spacingTop=-8;resizable=0;rounded=1;shadow=1;glass=0;sketch=0;" parent="1" vertex="1">
                    <mxGeometry x="10" y="10" width="180" height="30" as="geometry"/>
                </mxCell>
                <mxCell id="40" value="" style="shape=table;html=1;whiteSpace=wrap;startSize=0;container=1;collapsible=0;childLayout=tableLayout;fillColor=#dae8fc;align=left;spacingLeft=10;strokeColor=#6c8ebf;rounded=1;arcSize=11;resizable=0;points=[[0.25,0,0],[0.5,0,0],[0.75,0,0],[1,0.25,0],[1,0.5,0],[1,0.75,0],[0.75,1,0],[0.5,1,0],[0.25,1,0],[0,0.75,0],[0,0.5,0],[0,0.25,0]];shadow=1;glass=0;sketch=0;" parent="1" vertex="1">
                    <mxGeometry x="10" y="40" width="180" height="90" as="geometry"/>
                </mxCell>
                <mxCell id="45" value="Hardware" style="shape=partialRectangle;html=1;whiteSpace=wrap;connectable=0;fillColor=#a20025;top=0;left=0;bottom=0;right=0;overflow=hidden;pointerEvents=1;align=left;spacingLeft=10;rounded=1;shadow=1;glass=0;sketch=0;strokeColor=#6F0000;fontColor=#ffffff;" parent="40" vertex="1">
                    <mxGeometry width="180" height="30" as="geometry"/>
                </mxCell>
                <mxCell id="43" value="&lt;font color=&quot;#000000&quot;&gt;Container&lt;/font&gt;" style="shape=partialRectangle;html=1;whiteSpace=wrap;connectable=0;fillColor=#dae8fc;top=0;left=0;bottom=0;right=0;overflow=hidden;pointerEvents=1;align=left;spacingLeft=10;fontColor=#FFFFFF;rounded=1;shadow=1;glass=0;sketch=0;" parent="40" vertex="1">
                    <mxGeometry y="30" width="180" height="30" as="geometry"/>
                </mxCell>
                <mxCell id="105" value="Exposed endpoint" style="shape=partialRectangle;html=1;whiteSpace=wrap;connectable=0;fillColor=#fff2cc;top=0;left=0;bottom=0;right=0;overflow=hidden;pointerEvents=1;align=left;spacingLeft=10;rounded=1;shadow=1;glass=0;sketch=0;strokeColor=#d6b656;" parent="40" vertex="1">
                    <mxGeometry y="60" width="180" height="30" as="geometry"/>
                </mxCell>
                <mxCell id="20" value="influxdb" style="rounded=1;whiteSpace=wrap;html=1;glass=0;shadow=1;fillColor=#dae8fc;strokeColor=#6c8ebf;" parent="1" vertex="1">
                    <mxGeometry x="510" y="550" width="120" height="60" as="geometry"/>
                </mxCell>
                <mxCell id="55" style="edgeStyle=none;html=1;exitX=0;exitY=0.5;exitDx=0;exitDy=0;entryX=1;entryY=0.5;entryDx=0;entryDy=0;fontColor=#000000;shape=link;" parent="1" source="53" target="27" edge="1">
                    <mxGeometry relative="1" as="geometry"/>
                </mxCell>
                <mxCell id="127" value="Serve static html files" style="edgeLabel;html=1;align=center;verticalAlign=middle;resizable=0;points=[];fontSize=11;fontColor=#000000;" parent="55" vertex="1" connectable="0">
                    <mxGeometry x="0.408" relative="1" as="geometry">
                        <mxPoint x="27" y="-12" as="offset"/>
                    </mxGeometry>
                </mxCell>
                <mxCell id="53" value="http://home-monitoring-pi:80" style="text;html=1;strokeColor=#d6b656;fillColor=#fff2cc;align=center;verticalAlign=middle;whiteSpace=wrap;rounded=0;shadow=1;glass=0;sketch=0;" parent="1" vertex="1">
                    <mxGeometry x="760" y="925" width="160" height="30" as="geometry"/>
                </mxCell>
                <mxCell id="57" style="edgeStyle=none;html=1;exitX=0;exitY=0.5;exitDx=0;exitDy=0;entryX=1;entryY=0.5;entryDx=0;entryDy=0;fontColor=#000000;shape=link;" parent="1" source="56" target="20" edge="1">
                    <mxGeometry relative="1" as="geometry"/>
                </mxCell>
                <mxCell id="128" value="Provide gui/api" style="edgeLabel;html=1;align=center;verticalAlign=middle;resizable=0;points=[];fontSize=11;fontColor=#000000;" parent="57" vertex="1" connectable="0">
                    <mxGeometry x="0.4548" y="-2" relative="1" as="geometry">
                        <mxPoint x="29" y="-8" as="offset"/>
                    </mxGeometry>
                </mxCell>
                <mxCell id="56" value="http://home-monitoring-pi:8086" style="text;html=1;strokeColor=#d6b656;fillColor=#fff2cc;align=center;verticalAlign=middle;whiteSpace=wrap;rounded=0;shadow=1;glass=0;sketch=0;" parent="1" vertex="1">
                    <mxGeometry x="760" y="565" width="170" height="30" as="geometry"/>
                </mxCell>
                <mxCell id="61" style="edgeStyle=none;html=1;exitX=0;exitY=0.5;exitDx=0;exitDy=0;entryX=1;entryY=0.5;entryDx=0;entryDy=0;fontColor=#000000;shape=link;" parent="1" source="60" target="28" edge="1">
                    <mxGeometry relative="1" as="geometry"/>
                </mxCell>
                <mxCell id="126" value="Handle dns queries" style="edgeLabel;html=1;align=center;verticalAlign=middle;resizable=0;points=[];fontSize=11;fontColor=#000000;" parent="61" vertex="1" connectable="0">
                    <mxGeometry x="-0.5273" relative="1" as="geometry">
                        <mxPoint x="-34" y="-10" as="offset"/>
                    </mxGeometry>
                </mxCell>
                <mxCell id="60" value="udp://home-monitoring-pi:53" style="text;html=1;strokeColor=#d6b656;fillColor=#fff2cc;align=center;verticalAlign=middle;whiteSpace=wrap;rounded=0;shadow=1;glass=0;sketch=0;" parent="1" vertex="1">
                    <mxGeometry x="760" y="835" width="160" height="30" as="geometry"/>
                </mxCell>
                <mxCell id="65" value="&lt;font style=&quot;font-size: 16px;&quot;&gt;Telegram&lt;/font&gt;" style="ellipse;shape=cloud;whiteSpace=wrap;html=1;rounded=1;shadow=1;glass=0;sketch=0;fontSize=11;" parent="1" vertex="1">
                    <mxGeometry x="789" y="123" width="120" height="80" as="geometry"/>
                </mxCell>
                <mxCell id="66" value="&lt;font style=&quot;font-size: 16px;&quot;&gt;Discord&lt;/font&gt;" style="ellipse;shape=cloud;whiteSpace=wrap;html=1;rounded=1;shadow=1;glass=0;sketch=0;fontSize=11;" parent="1" vertex="1">
                    <mxGeometry x="860" y="218" width="120" height="80" as="geometry"/>
                </mxCell>
                <mxCell id="68" value="&lt;font style=&quot;font-size: 16px;&quot;&gt;Slack&lt;/font&gt;" style="ellipse;shape=cloud;whiteSpace=wrap;html=1;rounded=1;shadow=1;glass=0;sketch=0;fontSize=11;" parent="1" vertex="1">
                    <mxGeometry x="904" y="152" width="120" height="80" as="geometry"/>
                </mxCell>
                <mxCell id="69" value="&lt;font style=&quot;font-size: 16px;&quot;&gt;Email&lt;/font&gt;" style="ellipse;shape=cloud;whiteSpace=wrap;html=1;rounded=1;shadow=1;glass=0;sketch=0;fontSize=11;" parent="1" vertex="1">
                    <mxGeometry x="932" y="278" width="120" height="80" as="geometry"/>
                </mxCell>
                <mxCell id="70" value="&lt;font style=&quot;font-size: 16px;&quot;&gt;80+ others&lt;/font&gt;" style="ellipse;shape=cloud;whiteSpace=wrap;html=1;rounded=1;shadow=1;glass=0;sketch=0;fontSize=11;" parent="1" vertex="1">
                    <mxGeometry x="826" y="310" width="120" height="80" as="geometry"/>
                </mxCell>
                <mxCell id="82" style="edgeStyle=none;html=1;exitX=1;exitY=0.5;exitDx=0;exitDy=0;fontSize=16;fontColor=#000000;" parent="1" source="31" target="66" edge="1">
                    <mxGeometry relative="1" as="geometry"/>
                </mxCell>
                <mxCell id="86" value="Send notifications" style="edgeLabel;html=1;align=center;verticalAlign=middle;resizable=0;points=[];fontSize=11;fontColor=#000000;" parent="82" vertex="1" connectable="0">
                    <mxGeometry x="-0.1632" relative="1" as="geometry">
                        <mxPoint x="15" as="offset"/>
                    </mxGeometry>
                </mxCell>
                <mxCell id="87" style="edgeStyle=none;html=1;exitX=1;exitY=0.5;exitDx=0;exitDy=0;fontSize=11;fontColor=#000000;" parent="1" source="31" target="70" edge="1">
                    <mxGeometry relative="1" as="geometry"/>
                </mxCell>
                <mxCell id="88" style="edgeStyle=none;html=1;exitX=1;exitY=0.5;exitDx=0;exitDy=0;fontSize=11;fontColor=#000000;" parent="1" source="31" target="69" edge="1">
                    <mxGeometry relative="1" as="geometry"/>
                </mxCell>
                <mxCell id="89" style="edgeStyle=none;html=1;exitX=1;exitY=0.5;exitDx=0;exitDy=0;fontSize=11;fontColor=#000000;" parent="1" source="31" target="65" edge="1">
                    <mxGeometry relative="1" as="geometry"/>
                </mxCell>
                <mxCell id="90" style="edgeStyle=none;html=1;exitX=1;exitY=0.5;exitDx=0;exitDy=0;fontSize=11;fontColor=#000000;" parent="1" source="31" target="68" edge="1">
                    <mxGeometry relative="1" as="geometry"/>
                </mxCell>
                <mxCell id="106" value="http://home-monitoring-pi:8000" style="text;html=1;strokeColor=#d6b656;fillColor=#fff2cc;align=center;verticalAlign=middle;whiteSpace=wrap;rounded=0;shadow=1;glass=0;sketch=0;" parent="1" vertex="1">
                    <mxGeometry x="485" y="100" width="170" height="30" as="geometry"/>
                </mxCell>
                <mxCell id="108" style="edgeStyle=none;html=1;exitX=1;exitY=0.5;exitDx=0;exitDy=0;entryX=0;entryY=0.5;entryDx=0;entryDy=0;fontSize=11;fontColor=#000000;shape=link;" parent="1" source="107" target="29" edge="1">
                    <mxGeometry relative="1" as="geometry"/>
                </mxCell>
                <mxCell id="130" value="Receive messages&lt;br&gt;over http" style="edgeLabel;html=1;align=center;verticalAlign=middle;resizable=0;points=[];fontSize=11;fontColor=#000000;" parent="108" vertex="1" connectable="0">
                    <mxGeometry x="-0.3712" relative="1" as="geometry">
                        <mxPoint x="18" y="-17" as="offset"/>
                    </mxGeometry>
                </mxCell>
                <mxCell id="107" value="http://home-monitoring-pi:8080" style="text;html=1;strokeColor=#d6b656;fillColor=#fff2cc;align=center;verticalAlign=middle;whiteSpace=wrap;rounded=0;shadow=1;glass=0;sketch=0;" parent="1" vertex="1">
                    <mxGeometry x="20" y="565" width="170" height="30" as="geometry"/>
                </mxCell>
                <mxCell id="140" style="edgeStyle=none;html=1;exitX=0.5;exitY=1;exitDx=0;exitDy=0;fontSize=11;fontColor=#000000;" parent="1" source="113" target="107" edge="1">
                    <mxGeometry relative="1" as="geometry"/>
                </mxCell>
                <mxCell id="141" value="Send data points using&lt;br&gt;HTTP POST /" style="edgeLabel;html=1;align=center;verticalAlign=middle;resizable=0;points=[];fontSize=11;fontColor=#000000;" parent="140" vertex="1" connectable="0">
                    <mxGeometry x="-0.2565" y="-2" relative="1" as="geometry">
                        <mxPoint x="2" y="7" as="offset"/>
                    </mxGeometry>
                </mxCell>
                <mxCell id="113" value="Noninteractive&lt;br&gt;sensor 1" style="rounded=1;whiteSpace=wrap;html=1;glass=0;shadow=1;fillColor=#a20025;strokeColor=#6F0000;fontColor=#ffffff;" parent="1" vertex="1">
                    <mxGeometry x="45" y="390" width="120" height="60" as="geometry"/>
                </mxCell>
                <mxCell id="135" value="" style="edgeStyle=none;html=1;fontSize=11;fontColor=#000000;entryX=0.5;entryY=0;entryDx=0;entryDy=0;" parent="1" source="114" target="122" edge="1">
                    <mxGeometry relative="1" as="geometry"/>
                </mxCell>
                <mxCell id="136" value="Send data points (&quot;data-points&quot; topic)&lt;br&gt;Receive queries (&quot;queries&quot; topic)&lt;br&gt;Respond to queries (&quot;query-responses&quot; topic)&lt;br&gt;Receive commands (&quot;commands&quot; topic)&lt;br&gt;Respond to commands (&quot;command-responses&quot; topic)" style="edgeLabel;html=1;align=center;verticalAlign=middle;resizable=0;points=[];fontSize=11;fontColor=#000000;" parent="135" vertex="1" connectable="0">
                    <mxGeometry x="-0.2039" y="3" relative="1" as="geometry">
                        <mxPoint x="-3" y="8" as="offset"/>
                    </mxGeometry>
                </mxCell>
                <mxCell id="114" value="Interactive&lt;br&gt;sensor 2" style="rounded=1;whiteSpace=wrap;html=1;glass=0;shadow=1;fillColor=#a20025;strokeColor=#6F0000;fontColor=#ffffff;" parent="1" vertex="1">
                    <mxGeometry x="300" y="145" width="120" height="60" as="geometry"/>
                </mxCell>
                <mxCell id="123" style="edgeStyle=none;html=1;exitX=0.5;exitY=1;exitDx=0;exitDy=0;entryX=0.5;entryY=0;entryDx=0;entryDy=0;fontSize=11;fontColor=#000000;" parent="1" source="121" target="29" edge="1">
                    <mxGeometry relative="1" as="geometry"/>
                </mxCell>
                <mxCell id="132" value="Receive messages&lt;br&gt;over mqtt&lt;br&gt;(&quot;data-points&quot; topic)" style="edgeLabel;html=1;align=center;verticalAlign=middle;resizable=0;points=[];fontSize=11;fontColor=#000000;" parent="123" vertex="1" connectable="0">
                    <mxGeometry x="0.3879" relative="1" as="geometry">
                        <mxPoint x="-54" y="-23" as="offset"/>
                    </mxGeometry>
                </mxCell>
                <mxCell id="121" value="mqtt-broker" style="rounded=1;whiteSpace=wrap;html=1;glass=0;shadow=1;fillColor=#dae8fc;strokeColor=#6c8ebf;" parent="1" vertex="1">
                    <mxGeometry x="300" y="390" width="120" height="60" as="geometry"/>
                </mxCell>
                <mxCell id="142" style="edgeStyle=none;html=1;exitX=0.5;exitY=1;exitDx=0;exitDy=0;fontSize=11;fontColor=#000000;endArrow=none;endFill=0;shape=link;" parent="1" source="122" target="121" edge="1">
                    <mxGeometry relative="1" as="geometry"/>
                </mxCell>
                <mxCell id="122" value="mqtt://home-monitoring-pi:1883" style="text;html=1;strokeColor=#d6b656;fillColor=#fff2cc;align=center;verticalAlign=middle;whiteSpace=wrap;rounded=0;shadow=1;glass=0;sketch=0;" parent="1" vertex="1">
                    <mxGeometry x="275" y="325" width="170" height="30" as="geometry"/>
                </mxCell>
                <mxCell id="143" style="edgeStyle=none;html=1;exitX=0.5;exitY=0;exitDx=0;exitDy=0;entryX=0.5;entryY=1;entryDx=0;entryDy=0;shape=link;" edge="1" parent="1" source="31" target="106">
                    <mxGeometry relative="1" as="geometry"/>
                </mxCell>
                <mxCell id="144" value="Provide gui/api" style="edgeLabel;html=1;align=center;verticalAlign=middle;resizable=0;points=[];" vertex="1" connectable="0" parent="143">
                    <mxGeometry x="0.2302" y="-1" relative="1" as="geometry">
                        <mxPoint x="-1" y="6" as="offset"/>
                    </mxGeometry>
                </mxCell>
                <mxCell id="31" value="apprise" style="rounded=1;whiteSpace=wrap;html=1;glass=0;shadow=1;fillColor=#dae8fc;strokeColor=#6c8ebf;" parent="1" vertex="1">
                    <mxGeometry x="510" y="232" width="120" height="60" as="geometry"/>
                </mxCell>
                <mxCell id="146" style="edgeStyle=none;html=1;exitX=0;exitY=0.5;exitDx=0;exitDy=0;entryX=1;entryY=0.5;entryDx=0;entryDy=0;" edge="1" parent="1" source="145" target="121">
                    <mxGeometry relative="1" as="geometry"/>
                </mxCell>
                <mxCell id="148" value="Send commands&lt;br&gt;to hardware" style="edgeLabel;html=1;align=center;verticalAlign=middle;resizable=0;points=[];" vertex="1" connectable="0" parent="146">
                    <mxGeometry x="-0.3905" relative="1" as="geometry">
                        <mxPoint x="-18" y="19" as="offset"/>
                    </mxGeometry>
                </mxCell>
                <mxCell id="149" style="edgeStyle=none;html=1;exitX=0.5;exitY=1;exitDx=0;exitDy=0;" edge="1" parent="1" source="145" target="20">
                    <mxGeometry relative="1" as="geometry"/>
                </mxCell>
                <mxCell id="150" value="Perform flux&lt;br&gt;queries" style="edgeLabel;html=1;align=center;verticalAlign=middle;resizable=0;points=[];" vertex="1" connectable="0" parent="149">
                    <mxGeometry x="-0.325" y="-1" relative="1" as="geometry">
                        <mxPoint x="1" y="16" as="offset"/>
                    </mxGeometry>
                </mxCell>
                <mxCell id="151" style="edgeStyle=none;html=1;exitX=0.5;exitY=0;exitDx=0;exitDy=0;entryX=0.5;entryY=1;entryDx=0;entryDy=0;" edge="1" parent="1" source="145" target="31">
                    <mxGeometry relative="1" as="geometry"/>
                </mxCell>
                <mxCell id="152" value="Send alerts" style="edgeLabel;html=1;align=center;verticalAlign=middle;resizable=0;points=[];" vertex="1" connectable="0" parent="151">
                    <mxGeometry x="0.3095" y="1" relative="1" as="geometry">
                        <mxPoint x="1" y="14" as="offset"/>
                    </mxGeometry>
                </mxCell>
                <mxCell id="145" value="custom-scripts" style="rounded=1;whiteSpace=wrap;html=1;glass=0;shadow=1;fillColor=#dae8fc;strokeColor=#6c8ebf;" vertex="1" parent="1">
                    <mxGeometry x="510" y="390" width="120" height="60" as="geometry"/>
                </mxCell>
            </root>
        </mxGraphModel>
    </diagram>
</mxfile>